<mxfile host="app.diagrams.net" agent="Mozilla/5.0 (X11; Ubuntu; Linux x86_64; rv:134.0) Gecko/20100101 Firefox/134.0" version="26.0.7">
  <diagram name="Page-1" id="yOIOq5CUbTL2FCmnX5IO">
    <mxGraphModel dx="2480" dy="1445" grid="1" gridSize="10" guides="1" tooltips="1" connect="1" arrows="1" fold="1" page="1" pageScale="1" pageWidth="3300" pageHeight="4681" math="0" shadow="0">
      <root>
        <mxCell id="0" />
        <mxCell id="1" parent="0" />
        <mxCell id="AmkbOqZ7xTrb_Wq82uvq-5" style="edgeStyle=orthogonalEdgeStyle;rounded=0;orthogonalLoop=1;jettySize=auto;html=1;exitX=0.5;exitY=1;exitDx=0;exitDy=0;entryX=0.5;entryY=0;entryDx=0;entryDy=0;" edge="1" parent="1" source="AmkbOqZ7xTrb_Wq82uvq-1" target="AmkbOqZ7xTrb_Wq82uvq-4">
          <mxGeometry relative="1" as="geometry" />
        </mxCell>
        <mxCell id="AmkbOqZ7xTrb_Wq82uvq-1" value="کاربر گزینه پرداخت را انتخاب میکند" style="rounded=1;whiteSpace=wrap;html=1;fillColor=#f5f5f5;gradientColor=#b3b3b3;strokeColor=#666666;" vertex="1" parent="1">
          <mxGeometry x="620" y="190" width="120" height="60" as="geometry" />
        </mxCell>
        <mxCell id="AmkbOqZ7xTrb_Wq82uvq-2" value="" style="endArrow=classic;html=1;rounded=0;exitX=0.5;exitY=1;exitDx=0;exitDy=0;" edge="1" parent="1">
          <mxGeometry width="50" height="50" relative="1" as="geometry">
            <mxPoint x="679.7" y="150" as="sourcePoint" />
            <mxPoint x="679.7" y="190" as="targetPoint" />
          </mxGeometry>
        </mxCell>
        <mxCell id="AmkbOqZ7xTrb_Wq82uvq-3" value="" style="ellipse;whiteSpace=wrap;html=1;aspect=fixed;fillColor=light-dark(#464a4e, #7d8c9b);strokeColor=#314354;fontColor=#ffffff;" vertex="1" parent="1">
          <mxGeometry x="655.1600000000001" y="100" width="50" height="50" as="geometry" />
        </mxCell>
        <mxCell id="AmkbOqZ7xTrb_Wq82uvq-7" style="edgeStyle=orthogonalEdgeStyle;rounded=0;orthogonalLoop=1;jettySize=auto;html=1;exitX=0.5;exitY=1;exitDx=0;exitDy=0;entryX=0.5;entryY=0;entryDx=0;entryDy=0;" edge="1" parent="1" source="AmkbOqZ7xTrb_Wq82uvq-4" target="AmkbOqZ7xTrb_Wq82uvq-6">
          <mxGeometry relative="1" as="geometry" />
        </mxCell>
        <mxCell id="AmkbOqZ7xTrb_Wq82uvq-4" value="کاربر به درگاه پرداخت منتقل میشود" style="rounded=1;whiteSpace=wrap;html=1;fillColor=#f5f5f5;gradientColor=#b3b3b3;strokeColor=#666666;" vertex="1" parent="1">
          <mxGeometry x="620" y="290" width="120" height="60" as="geometry" />
        </mxCell>
        <mxCell id="AmkbOqZ7xTrb_Wq82uvq-11" style="edgeStyle=orthogonalEdgeStyle;rounded=0;orthogonalLoop=1;jettySize=auto;html=1;exitX=0.5;exitY=1;exitDx=0;exitDy=0;entryX=0.5;entryY=0;entryDx=0;entryDy=0;" edge="1" parent="1" source="AmkbOqZ7xTrb_Wq82uvq-6" target="AmkbOqZ7xTrb_Wq82uvq-8">
          <mxGeometry relative="1" as="geometry" />
        </mxCell>
        <mxCell id="AmkbOqZ7xTrb_Wq82uvq-6" value="کاربر اطلاعات کارت بانکی خود را وارد میکند" style="rounded=1;whiteSpace=wrap;html=1;fillColor=#f5f5f5;gradientColor=#b3b3b3;strokeColor=#666666;" vertex="1" parent="1">
          <mxGeometry x="620" y="400" width="120" height="60" as="geometry" />
        </mxCell>
        <mxCell id="AmkbOqZ7xTrb_Wq82uvq-9" style="edgeStyle=orthogonalEdgeStyle;rounded=0;orthogonalLoop=1;jettySize=auto;html=1;exitX=1;exitY=0.5;exitDx=0;exitDy=0;" edge="1" parent="1" source="AmkbOqZ7xTrb_Wq82uvq-8">
          <mxGeometry relative="1" as="geometry">
            <mxPoint x="840" y="480" as="targetPoint" />
          </mxGeometry>
        </mxCell>
        <mxCell id="AmkbOqZ7xTrb_Wq82uvq-10" value="اطلاعات بانکی غلط" style="edgeLabel;html=1;align=center;verticalAlign=middle;resizable=0;points=[];" vertex="1" connectable="0" parent="AmkbOqZ7xTrb_Wq82uvq-9">
          <mxGeometry x="-0.1085" relative="1" as="geometry">
            <mxPoint as="offset" />
          </mxGeometry>
        </mxCell>
        <mxCell id="AmkbOqZ7xTrb_Wq82uvq-14" style="edgeStyle=orthogonalEdgeStyle;rounded=0;orthogonalLoop=1;jettySize=auto;html=1;exitX=0;exitY=0.5;exitDx=0;exitDy=0;" edge="1" parent="1" source="AmkbOqZ7xTrb_Wq82uvq-8">
          <mxGeometry relative="1" as="geometry">
            <mxPoint x="590" y="660" as="targetPoint" />
          </mxGeometry>
        </mxCell>
        <mxCell id="AmkbOqZ7xTrb_Wq82uvq-15" value="اطلاعات بانکی صحیح" style="edgeLabel;html=1;align=center;verticalAlign=middle;resizable=0;points=[];" vertex="1" connectable="0" parent="AmkbOqZ7xTrb_Wq82uvq-14">
          <mxGeometry x="-0.0148" y="1" relative="1" as="geometry">
            <mxPoint as="offset" />
          </mxGeometry>
        </mxCell>
        <mxCell id="AmkbOqZ7xTrb_Wq82uvq-8" value="" style="rhombus;whiteSpace=wrap;html=1;" vertex="1" parent="1">
          <mxGeometry x="645" y="520" width="70" height="50" as="geometry" />
        </mxCell>
        <mxCell id="AmkbOqZ7xTrb_Wq82uvq-13" style="edgeStyle=orthogonalEdgeStyle;rounded=0;orthogonalLoop=1;jettySize=auto;html=1;exitX=0.5;exitY=0;exitDx=0;exitDy=0;entryX=1;entryY=0.25;entryDx=0;entryDy=0;" edge="1" parent="1" source="AmkbOqZ7xTrb_Wq82uvq-12" target="AmkbOqZ7xTrb_Wq82uvq-4">
          <mxGeometry relative="1" as="geometry" />
        </mxCell>
        <mxCell id="AmkbOqZ7xTrb_Wq82uvq-12" value="پیغام خطا به کاربر نمایش داده میشود" style="rounded=1;whiteSpace=wrap;html=1;fillColor=#f5f5f5;gradientColor=#b3b3b3;strokeColor=#666666;" vertex="1" parent="1">
          <mxGeometry x="780" y="420" width="120" height="60" as="geometry" />
        </mxCell>
        <mxCell id="AmkbOqZ7xTrb_Wq82uvq-18" style="edgeStyle=orthogonalEdgeStyle;rounded=0;orthogonalLoop=1;jettySize=auto;html=1;exitX=1;exitY=0.5;exitDx=0;exitDy=0;entryX=1;entryY=0.5;entryDx=0;entryDy=0;" edge="1" parent="1" source="AmkbOqZ7xTrb_Wq82uvq-17" target="AmkbOqZ7xTrb_Wq82uvq-12">
          <mxGeometry relative="1" as="geometry">
            <mxPoint x="920" y="450" as="targetPoint" />
            <Array as="points">
              <mxPoint x="941" y="685" />
              <mxPoint x="941" y="450" />
            </Array>
          </mxGeometry>
        </mxCell>
        <mxCell id="AmkbOqZ7xTrb_Wq82uvq-19" value="عدم موجودی" style="edgeLabel;html=1;align=center;verticalAlign=middle;resizable=0;points=[];" vertex="1" connectable="0" parent="AmkbOqZ7xTrb_Wq82uvq-18">
          <mxGeometry x="-0.0951" y="-4" relative="1" as="geometry">
            <mxPoint x="-146" y="-19" as="offset" />
          </mxGeometry>
        </mxCell>
        <mxCell id="AmkbOqZ7xTrb_Wq82uvq-20" style="edgeStyle=orthogonalEdgeStyle;rounded=0;orthogonalLoop=1;jettySize=auto;html=1;exitX=0.5;exitY=1;exitDx=0;exitDy=0;" edge="1" parent="1" source="AmkbOqZ7xTrb_Wq82uvq-17">
          <mxGeometry relative="1" as="geometry">
            <mxPoint x="595" y="850" as="targetPoint" />
          </mxGeometry>
        </mxCell>
        <mxCell id="AmkbOqZ7xTrb_Wq82uvq-21" value="موجودی کافی" style="edgeLabel;html=1;align=center;verticalAlign=middle;resizable=0;points=[];" vertex="1" connectable="0" parent="AmkbOqZ7xTrb_Wq82uvq-20">
          <mxGeometry x="-0.1744" relative="1" as="geometry">
            <mxPoint as="offset" />
          </mxGeometry>
        </mxCell>
        <mxCell id="AmkbOqZ7xTrb_Wq82uvq-17" value="" style="rhombus;whiteSpace=wrap;html=1;" vertex="1" parent="1">
          <mxGeometry x="560" y="660" width="70" height="50" as="geometry" />
        </mxCell>
        <mxCell id="AmkbOqZ7xTrb_Wq82uvq-24" style="edgeStyle=orthogonalEdgeStyle;rounded=0;orthogonalLoop=1;jettySize=auto;html=1;exitX=0.5;exitY=1;exitDx=0;exitDy=0;" edge="1" parent="1" source="AmkbOqZ7xTrb_Wq82uvq-22" target="AmkbOqZ7xTrb_Wq82uvq-23">
          <mxGeometry relative="1" as="geometry" />
        </mxCell>
        <mxCell id="AmkbOqZ7xTrb_Wq82uvq-22" value="پرداخت با موفقیت انجام میشود" style="rounded=1;whiteSpace=wrap;html=1;fillColor=#f5f5f5;gradientColor=#b3b3b3;strokeColor=#666666;" vertex="1" parent="1">
          <mxGeometry x="535.16" y="850" width="120" height="60" as="geometry" />
        </mxCell>
        <mxCell id="AmkbOqZ7xTrb_Wq82uvq-27" style="edgeStyle=orthogonalEdgeStyle;rounded=0;orthogonalLoop=1;jettySize=auto;html=1;exitX=0.5;exitY=1;exitDx=0;exitDy=0;entryX=0.5;entryY=0;entryDx=0;entryDy=0;" edge="1" parent="1" source="AmkbOqZ7xTrb_Wq82uvq-23" target="AmkbOqZ7xTrb_Wq82uvq-25">
          <mxGeometry relative="1" as="geometry" />
        </mxCell>
        <mxCell id="AmkbOqZ7xTrb_Wq82uvq-23" value="کاربر به برنامه منتقل میشود" style="rounded=1;whiteSpace=wrap;html=1;fillColor=#f5f5f5;gradientColor=#b3b3b3;strokeColor=#666666;" vertex="1" parent="1">
          <mxGeometry x="535" y="970" width="120" height="60" as="geometry" />
        </mxCell>
        <mxCell id="AmkbOqZ7xTrb_Wq82uvq-25" value="" style="ellipse;whiteSpace=wrap;html=1;aspect=fixed;" vertex="1" parent="1">
          <mxGeometry x="565" y="1070" width="60" height="60" as="geometry" />
        </mxCell>
        <mxCell id="AmkbOqZ7xTrb_Wq82uvq-26" value="" style="ellipse;whiteSpace=wrap;html=1;aspect=fixed;fillColor=#647687;fontColor=#ffffff;strokeColor=#314354;" vertex="1" parent="1">
          <mxGeometry x="575" y="1080" width="40" height="40" as="geometry" />
        </mxCell>
      </root>
    </mxGraphModel>
  </diagram>
</mxfile>
